<?xml version="1.0" encoding="UTF-8"?>
<svg id="Layer_1" data-name="Layer 1" xmlns="http://www.w3.org/2000/svg" viewBox="0 0 1920 1080">
  <defs>
    <style>
      .cls-1 {
        fill: #162dfb;
      }

      .cls-2 {
        fill: #ed6738;
      }
    </style>
  </defs>
  <g>
    <path class="cls-2" d="M570.79,523.68l-52.77,11.66c-8.85,1.95-17.74-1.44-23.55-7.61-6.1-6.49-8.74-15.76-6.06-24.44l7.82-25.35,7.92-.12c6.24.13,12.19.26,18.55.74l-10.47,32.44,46.94-10.28,11.62,22.97Z"/>
    <path class="cls-1" d="M459.9,580.17l-10.24-18.53,29.61-6.77c.98-.22,2-1.16,2.24-1.87.3-.88.02-2.34-.43-3.29l-30.76-33.09,11.31-17.37,34.65,37.35c8.38,10.51,7.14,25.05-3.43,33.26-3.24,2.52-6.93,4.09-10.94,5.07l-22,5.23Z"/>
    <path class="cls-1" d="M534.37,558.48c-.64-.72-2.41-.77-3.23-.53-.77.23-1.74,1.19-2.09,2.31l-13.29,41.93-20.86-.5,15.29-48.21c2.43-7.66,9.01-13.17,15.82-14.93,8.47-2.19,17.07-.1,22.78,6.14l17.04,18.66-10.95,18.25-20.52-23.1Z"/>
  </g>
  <g>
    <path class="cls-1" d="M672.92,572.1c.39.66.79,1.97,1.97,1.97s1.58-1.31,1.97-1.97l27.47-74.26h18.8l-33.39,83.07c-1.97,4.99-5.65,9.99-14.85,9.99s-12.88-5-14.85-9.99l-33.39-83.07h18.8l27.47,74.26Z"/>
    <path class="cls-1" d="M749.68,507.17c3.29-7.75,6.83-10.38,15.12-10.38s11.83,2.63,15.12,10.38l34.7,82.68h-18.27l-9.46-23.26h-44.29l-9.33,23.26h-18.27l34.7-82.68ZM747.05,554.22h35.36l-14.98-37.46c-.53-1.45-1.45-3.81-2.63-3.81s-2.1,2.37-2.63,3.81l-15.12,37.46Z"/>
    <path class="cls-1" d="M833.79,589.84c-7.89,0-13.41-3.29-13.41-13.8v-78.21h17.35v71.63c0,5.26,1.31,6.57,6.57,6.57h49.42v13.8h-59.94Z"/>
    <path class="cls-1" d="M901.61,589.84v-92.01h17.35v92.01h-17.35Z"/>
    <path class="cls-1" d="M1022.8,577.88c0,9.33-6.18,13.01-13.67,13.01-5.65,0-10.78-1.31-14.85-7.75l-38.78-61.25c-1.45-1.97-1.71-2.23-2.1-2.23-.66,0-1.84.66-1.84,2.63v67.56h-16.82v-80.57c0-7.89,5.26-12.49,14.06-12.49,8.28,0,12.09,3.15,14.59,7.23l39.04,61.65c.66.92.92,2.23,2.1,2.23,1.45,0,1.45-1.58,1.45-2.23v-67.82h16.82v80.05Z"/>
    <path class="cls-1" d="M1044.61,589.84c-4.21,0-12.62-.39-12.62-9.46,0-5.65,3.02-9.59,5.65-12.36l50.21-51.92c.92-.92,1.58-1.84,1.58-2.76,0-.53-.39-1.71-2.5-1.71h-51.39v-13.8h66.11c5.13,0,10.38,1.97,10.38,9.46,0,5.92-2.63,8.54-5.26,11.3l-50.87,53.63c-.66.66-1.31,1.31-1.31,2.37,0,1.18.66,1.45,1.58,1.45h54.42v13.8h-65.98Z"/>
  </g>
  <g>
    <path class="cls-2" d="M1154.39,589.84v-78.21h-35.88v-13.8h89.25v13.8h-36.01v78.21h-17.35Z"/>
    <path class="cls-2" d="M1289.37,589.84h-60.33c-7.89,0-13.41-3.29-13.41-13.8v-64.41c0-10.52,5.52-13.8,13.41-13.8h59.81v13.8h-49.29c-5.26,0-6.57,1.31-6.57,6.57v17.74h54.55v13.8h-54.55v19.72c0,5.26,1.31,6.57,6.57,6.57h49.82v13.8Z"/>
    <path class="cls-2" d="M1337.6,589.84c-31.55,0-39.04-19.72-39.04-46s7.49-46,39.04-46h36.93v13.8h-28.78c-22.34,0-29.31,7.23-29.31,32.2s6.97,32.2,29.31,32.2h30.23v13.8h-38.38Z"/>
    <path class="cls-2" d="M1470.35,589.84h-17.35v-40.48h-47.84v40.48h-17.35v-92.01h17.35v37.72h47.84v-37.72h17.35v92.01Z"/>
  </g>
</svg>