<?xml version="1.0" encoding="UTF-8"?>
<svg id="Layer_1" data-name="Layer 1" xmlns="http://www.w3.org/2000/svg" viewBox="0 0 978.76 1080">
  <defs>
    <style>
      .cls-1 {
        fill: #162dfb;
      }

      .cls-2 {
        fill: #ed6738;
      }
    </style>
  </defs>
  <path class="cls-2" d="M717.97,479.91l-194.35,42.92c-32.59,7.2-65.35-5.31-86.72-28.04-22.48-23.91-32.19-58.05-22.33-90l28.81-93.34,29.17-.44c22.99.48,44.9.95,68.32,2.73l-38.55,119.45,172.87-37.87,42.78,84.58Z"/>
  <path class="cls-1" d="M309.57,687.93l-37.72-68.25,109.04-24.92c3.6-.82,7.36-4.29,8.25-6.88,1.12-3.24.07-8.6-1.58-12.12l-113.29-121.87,41.64-63.97,127.6,137.56c30.85,38.7,26.28,92.23-12.62,122.49-11.92,9.27-25.52,15.07-40.3,18.68l-81.02,19.27Z"/>
  <path class="cls-1" d="M583.82,608.05c-2.37-2.66-8.87-2.85-11.88-1.96-2.85.84-6.39,4.4-7.69,8.5l-48.93,154.4-76.8-1.85,56.29-177.54c8.95-28.21,33.19-48.51,58.27-54.99,31.21-8.07,62.87-.38,83.87,22.61l62.77,68.72-40.33,67.19-75.57-85.07Z"/>
</svg>
